PathFileType	4	(X/Y/Z)	Run_300 02
DataRate	CameraRate	NumFrames	NumMarkers	Units	OrigDataRate	OrigDataStartFrame	OrigNumFrames
100	100	8	42	mm	100	31	128
Frame#	Time	LASI			RASI			LPSI			RPSI			RTH1			RTH2			RTH3			LTH1			LTH2			LTH3			RTB1			RTB2			RTB3			LTB1			LTB2			LTB3			RCAL			RTOE			RMT5			LCAL			LTOE			LMT5			LACR			RACR			CLAV			C7			RUA1			RUA2			RUA3			RLEL			RMEL			LUA1			LUA2			LUA3			LLEL			LMEL			RFAsuperior			RFAradius			RFAulna			LFAsuperior			LFAradius			LFAulna			
		X1	Y1	Z1	X2	Y2	Z2	X3	Y3	Z3	X4	Y4	Z4	X5	Y5	Z5	X6	Y6	Z6	X7	Y7	Z7	X8	Y8	Z8	X9	Y9	Z9	X10	Y10	Z10	X11	Y11	Z11	X12	Y12	Z12	X13	Y13	Z13	X14	Y14	Z14	X15	Y15	Z15	X16	Y16	Z16	X17	Y17	Z17	X18	Y18	Z18	X19	Y19	Z19	X20	Y20	Z20	X21	Y21	Z21	X22	Y22	Z22	X23	Y23	Z23	X24	Y24	Z24	X25	Y25	Z25	X26	Y26	Z26	X27	Y27	Z27	X28	Y28	Z28	X29	Y29	Z29	X30	Y30	Z30	X31	Y31	Z31	X32	Y32	Z32	X33	Y33	Z33	X34	Y34	Z34	X35	Y35	Z35	X36	Y36	Z36	X37	Y37	Z37	X38	Y38	Z38	X39	Y39	Z39	X40	Y40	Z40	X41	Y41	Z41	X42	Y42	Z42	

28	0.7	939.9315769999999	1003.583624	-417.389904	928.362141	996.540156	-177.119964	777.2748340000001	1058.517557	-354.839936	772.645856	1054.744303	-255.768096	790.827008	773.013573	-128.159489	815.522408	675.474602	-140.128587	721.636727	612.1432150000001	-157.958735	964.3029739999999	842.160907	-465.318423	1062.026503	782.254205	-440.247613	1060.596239	659.050601	-422.746576	650.186587	400.483958	-216.833308	570.182114	361.951602	-175.214671	531.897785	254.984296	-235.123767	1118.949098	472.40415	-354.97276	1057.136936	397.837574	-418.549383	1060.555831	287.72255	-341.080626	397.850464	239.044885	-267.222439	535.046263	69.909751	-278.499744	466.204968	69.528828	-182.359258	938.71096	183.532421	-319.200109	1150.577114	127.937493	-321.908825	1097.273055	99.793221	-414.174953	906.549439	1488.458251	-457.802052	955.420846	1485.833072	-172.206127	1016.802024	1409.763753	-312.029204	885.445455	1513.50006	-304.620494	947.21831	1389.9188	-62.713169	886.455706	1326.527542	-46.831014	946.871415	1277.501753	-2.152246	939.625478	1211.73005	37.822099	895.651163	1173.426755	-15.299089	794.659811	1424.574742	-523.450186	746.809578	1382.564072	-464.576545	732.730544	1351.525935	-549.286385	667.789271	1290.414358	-564.858368	655.15924	1270.410388	-493.221546	1044.65476	1214.929412	-14.227057	1120.354314	1221.820202	-128.71356	1126.26172	1156.778636	-101.781692	776.245798	1241.390587	-572.702457	877.667887	1156.739144	-510.747118	835.64319	1127.260695	-561.057014	
29	0.71	941.803848	1006.974526	-418.120742	931.014396	999.853158	-177.800467	779.580742	1062.483145	-354.115997	775.590457	1059.27881	-255.141433	786.7620910000001	779.529087	-127.911754	808.81837	681.367023	-138.925337	713.894337	620.355227	-157.674687	963.409212	843.109647	-463.782277	1059.332672	780.399281	-440.463193	1056.259249	656.816032	-422.545117	638.423125	409.846766	-215.781481	558.363175	372.687468	-172.846038	518.572637	265.44235	-232.08281	1123.620762	471.906003	-355.797417	1065.579119	391.758933	-416.607079	1083.083163	282.750664	-340.116732	387.805633	255.63055	-262.824673	511.784457	75.01885799999999	-276.471509	443.077106	78.83654199999999	-181.877413	972.084289	166.378851	-317.380898	1188.991755	135.082963	-319.267478	1139.240435	99.26110799999999	-410.892067	907.72388	1492.317936	-457.770636	957.024147	1489.859507	-174.635505	1017.690919	1413.952131	-313.548059	886.2642070000001	1516.856497	-305.297954	949.877257	1395.4728	-64.218135	888.693893	1332.464078	-47.274428	949.324909	1283.54486	-2.531915	942.788323	1217.134775	37.476855	899.13217	1178.273412	-15.731193	794.98831	1430.87713	-523.545699	748.231029	1389.281136	-463.374785	732.0353710000001	1357.605967	-547.322539	665.971281	1296.746731	-561.2642090000001	654.859156	1277.092804	-489.431565	1047.398521	1222.615738	-15.176872	1122.107327	1231.621923	-129.802266	1129.502791	1166.358201	-103.885773	773.687003	1247.319247	-570.2608739999999	876.617183	1162.887731	-511.177739	833.706097	1133.273316	-560.151758	
30	0.72	943.593837	1008.947779	-418.562072	933.275629	1002.132502	-178.24625	781.849541	1065.432156	-353.28094	778.182448	1062.863705	-254.410714	784.5036229999999	785.022232	-127.397301	804.812315	686.277166	-138.289293	708.963489	626.835284	-157.238211	961.988293	842.5033529999999	-462.996795	1055.323184	775.862162	-441.430005	1049.962729	651.904598	-422.89402	629.022606	417.832792	-215.077374	549.057845	382.029394	-170.874459	506.600971	275.43018	-229.800985	1126.386108	469.905728	-356.569965	1072.311865	385.133666	-414.711256	1103.096106	278.311809	-339.892604	379.565692	271.934705	-259.318471	489.083158	81.064998	-274.038317	420.689822	89.42316099999999	-181.528667	1003.48365	151.405064	-316.914634	1222.434961	143.93933	-316.360178	1177.913627	101.02196	-407.548288	909.021847	1495.216451	-457.650763	958.336979	1492.773487	-176.904033	1018.573302	1416.996104	-314.850542	886.826511	1519.2088	-305.725916	951.79224	1399.878388	-65.74228599999999	890.201945	1337.918104	-47.032745	951.075476	1288.508766	-2.750779	945.053255	1221.510368	37.363472	901.631848	1182.115255	-15.84893	795.644952	1436.018597	-523.510411	749.846873	1394.770449	-462.136677	731.652712	1362.490299	-545.447869	664.731692	1301.661617	-557.938041	655.213529	1282.196354	-486.03707	1049.313589	1228.99357	-15.795477	1123.028577	1239.73824	-130.467911	1131.804721	1174.272918	-105.436974	771.790202	1252.22621	-567.676326	876.123135	1168.379474	-511.361805	832.945091	1138.462885	-559.499136	
31	0.73	945.441488	1009.673939	-418.702818	935.134593	1003.658715	-178.579705	784.103076	1067.219214	-352.85854	780.406507	1065.474351	-253.933105	784.378245	788.789416	-126.652936	803.842599	689.49227	-138.238499	706.9562	631.141744	-156.574377	960.47663	840.6690589999999	-463.415961	1050.619123	769.555148	-443.187733	1041.944141	645.12996	-423.415707	621.875324	423.805902	-214.009479	541.521216	389.91358	-169.260348	495.522242	284.580643	-227.835933	1127.452783	466.57064	-357.61133	1077.406694	378.235031	-413.312879	1119.876521	274.571148	-340.258667	372.460337	287.546617	-256.979561	466.793739	87.940709	-271.149933	398.683255	101.27501	-180.853758	1031.534255	139.039411	-317.067235	1249.912108	153.745857	-313.591549	1211.428353	104.536838	-404.308559	910.390535	1497.129981	-457.675396	959.257526	1494.59835	-178.80665	1019.422097	1418.917648	-315.951178	887.292832	1520.676248	-306.027041	952.936331	1403.045161	-67.13249399999999	891.121521	1342.011979	-46.875193	952.084441	1292.236593	-2.81281	946.2930239999999	1224.790272	37.412727	903.06432	1184.892168	-15.724721	796.596737	1439.857979	-523.404368	751.588876	1398.818015	-460.951585	731.635279	1366.078546	-543.806166	664.145231	1305.019061	-555.077619	656.156255	1285.602881	-483.167622	1050.259361	1233.885884	-16.118093	1123.142761	1246.058671	-130.707903	1133.141293	1180.428987	-106.367167	770.892915	1256.205462	-565.835254	876.148412	1173.146961	-511.260404	833.3276949999999	1142.717174	-559.17976	
32	0.74	947.4208190000001	1009.36416	-418.604729	936.622917	1004.727267	-178.876205	786.233059	1067.645791	-353.311095	782.235214	1067.102088	-253.967414	786.179076	790.340883	-126.045117	805.663358	690.645455	-138.593492	707.849205	633.058856	-155.743286	959.174021	837.495827	-464.945676	1045.992856	762.131159	-445.460441	1033.161971	637.448033	-423.833128	616.827035	427.584262	-212.578694	535.370579	396.647982	-167.966871	485.011035	293.087476	-226.037103	1127.107154	462.114535	-359.005974	1081.062117	371.43707	-412.580858	1132.828205	271.407271	-340.681169	365.382614	302.417441	-255.7312	445.320802	96.030158	-267.769188	377.46263	114.5954	-179.357468	1054.781104	129.329394	-317.119867	1270.795091	162.960377	-311.384111	1238.037772	108.641034	-401.565893	911.845652	1498.056278	-458.032245	959.690604	1495.392954	-180.190615	1020.185377	1419.804376	-316.87431	887.837273	1521.366286	-306.377596	953.325508	1404.88251	-68.28287	891.578834	1343.832078	-47.674712	952.22258	1294.646378	-2.742124	946.34461	1226.954304	37.537309	903.352115	1186.63025	-15.524072	797.88363	1442.224013	-523.423192	753.4744889999999	1401.234944	-460.057582	732.0744560000001	1368.26676	-542.536662	664.290675	1306.703122	-552.868002	657.692778	1287.249298	-480.983787	1050.071824	1237.165674	-16.146287	1122.501478	1250.454783	-130.504886	1133.499777	1184.733037	-106.598539	771.120514	1259.081661	-564.972597	877.03415	1176.967346	-511.216907	834.835433	1145.899136	-559.191632	
33	0.75	949.492131	1008.170838	-418.305016	937.833922	1005.37138	-179.084299	787.998735	1066.638753	-354.624137	783.649679	1067.647802	-254.619033	789.261844	789.696253	-125.949982	809.551344	689.8930329999999	-139.121714	711.374039	632.60522	-154.844421	958.180922	832.892206	-467.217028	1042.136459	753.884407	-447.628746	1025.171484	629.7747419999999	-424.19006	613.8039219999999	429.421162	-211.221553	530.802066	402.617595	-166.930152	475.26499	301.526557	-224.6272	1125.705563	456.917862	-360.209416	1083.440909	365.100592	-412.20538	1141.653424	268.386464	-340.586415	357.698605	316.899593	-255.285775	425.429963	105.818293	-264.008307	358.185415	129.53721	-176.807249	1071.956225	121.595344	-316.833366	1285.004109	169.730355	-310.010237	1256.760467	111.98756	-399.764995	913.445618	1497.936634	-458.761298	959.658113	1495.203474	-181.035397	1020.827539	1419.719121	-317.630621	888.548223	1521.273577	-306.959443	952.970904	1405.278061	-69.20057199999999	891.466964	1343.34583	-49.456285	951.303075	1295.756169	-2.595465	945.091722	1228.015178	37.67786	902.445253	1187.378	-15.407299	799.547044	1442.935125	-523.841036	755.551754	1401.922103	-459.726261	733.05157	1368.921421	-541.776471	665.221727	1306.613355	-551.4951119999999	659.820923	1287.086591	-479.675895	1048.741845	1238.805432	-15.820202	1121.160356	1252.794196	-129.843786	1132.887397	1187.08308	-106.084235	772.398198	1260.514703	-564.760252	879.274874	1179.547268	-511.687205	837.483743	1147.865422	-559.533491	
34	0.76	951.533407	1006.160129	-417.816193	938.895266	1005.398671	-179.081581	789.20523	1064.296306	-356.301607	784.68652	1066.897344	-255.867729	792.979296	787.31387	-126.402714	814.664224	687.72046	-139.620361	716.996672	629.976264	-153.947713	957.50122	827.1699170000001	-469.769856	1039.517628	745.112629	-449.059814	1019.501574	622.785286	-424.657553	612.839447	429.759633	-210.264642	528.2862260000001	407.998947	-166.096832	466.949954	310.342472	-223.920781	1123.59169	451.525057	-360.320047	1084.492766	359.328483	-411.687485	1146.261692	264.893543	-339.777742	349.882362	331.520109	-255.270287	407.744803	117.411906	-260.216002	342.087207	146.005361	-173.326567	1082.155758	114.634462	-316.387292	1292.808651	172.799146	-309.439089	1267.413286	113.509762	-399.063715	915.23841	1496.697362	-459.798977	959.281216	1494.03327	-181.488726	1021.336935	1418.650237	-318.208585	889.366066	1520.303753	-307.881216	951.846594	1404.152634	-69.964885	890.404397	1341.42319	-51.436878	949.155891	1295.65972	-2.445201	942.499907	1228.001181	37.808702	900.320694	1187.1618	-15.451224	801.558359	1441.873178	-524.905678	757.830735	1400.882984	-460.145504	734.6216010000001	1367.883427	-541.709081	666.970548	1304.665642	-551.150906	662.469794	1285.059281	-479.420027	1046.399314	1238.837402	-15.082737	1119.15851	1252.977107	-128.74049	1131.308476	1187.378729	-104.837252	774.637334	1260.273601	-564.920507	883.139769	1180.704058	-512.837771	841.2995979999999	1148.500321	-560.215148	
35	0.77	953.438042	1003.352387	-417.247506	939.921638	1004.626491	-178.804392	789.975656	1060.757779	-357.850758	785.452641	1064.609572	-257.596212	797.0838649999999	783.739929	-127.082071	820.450339	684.568347	-139.892148	724.102415	625.44275	-153.075016	957.201283	820.912614	-472.080837	1038.358494	736.436302	-449.635473	1016.823774	616.647158	-425.136631	614.018277	428.970727	-209.631604	528.170304	412.715769	-165.432475	460.790184	319.452532	-223.807141	1120.801763	446.250645	-358.837826	1083.886949	353.744628	-410.841548	1146.489355	260.238656	-338.472485	343.295605	346.669807	-255.333286	392.438317	130.472884	-256.813026	329.754105	163.665407	-169.272268	1084.918307	107.691829	-315.855985	1294.441408	171.588088	-309.285568	1270.018863	112.173953	-399.136429	917.202253	1494.330011	-461.070919	958.639519	1491.852949	-181.813256	1021.698739	1416.539993	-318.586533	890.112754	1518.377945	-309.130633	949.884271	1401.591242	-70.625004	887.968828	1338.94187	-52.982067	945.703	1294.471469	-2.348008	938.593875	1226.951815	37.91912	896.962225	1186.003874	-15.640112	803.825159	1439.039559	-526.739408	760.241342	1398.167579	-461.38977	736.813911	1365.003159	-542.558104	669.55445	1300.810842	-551.991434	665.5271729999999	1281.13576	-480.318034	1043.134188	1237.274553	-13.962738	1116.516192	1250.965083	-127.235372	1128.732577	1185.547561	-102.92563	777.820835	1258.316788	-565.529935	888.447961	1180.447751	-514.404437	846.273531	1147.747994	-561.20818	
